<svg xmlns="http://www.w3.org/2000/svg" viewBox="0 0 512 512" fill="none">
  <defs>
    <linearGradient id="bg" x1="0" y1="0" x2="1" y2="1">
      <stop offset="0%" stop-color="#0a0c10"/>
      <stop offset="50%" stop-color="#12151c"/>
      <stop offset="100%" stop-color="#050608"/>
    </linearGradient>
    <linearGradient id="tile" x1="0" y1="0" x2="0" y2="1">
      <stop offset="0%" stop-color="#3ee8a8"/>
      <stop offset="55%" stop-color="#22c58a"/>
      <stop offset="100%" stop-color="#14966a"/>
    </linearGradient>
    <filter id="glow" x="-20%" y="-20%" width="140%" height="140%">
      <feGaussianBlur stdDeviation="12" result="b"/>
      <feMerge>
        <feMergeNode in="b"/>
        <feMergeNode in="SourceGraphic"/>
      </feMerge>
    </filter>
  </defs>
  <rect width="512" height="512" rx="112" fill="url(#bg)"/>
  <rect x="96" y="96" width="320" height="320" rx="96" fill="url(#tile)" filter="url(#glow)"/>
  <path fill="#050608" d="M178 168c-14 7-26 20-30 36l-22 48c-6 14-2 30 10 40l42 42c62 62 112 112 174 174l42 42c10 12 26 16 40 10l58-30c14-7 24-16 30-30l22-46c4-10 0-20-8-26l-70-52c-8-6-18-6-26-2l-30 14c-20 8-44 0-58-18l-52-52c-14-18-26-38-18-58l14-30c4-8 4-18-2-26l-70-52c-6-8-16-12-26-8l-46 22z"/>
</svg>
